<?xml version="1.0" encoding="UTF-8"?>
<svg id="_레이어_1" data-name="레이어 1" xmlns="http://www.w3.org/2000/svg" viewBox="0 0 354.33 354.33">
  <defs>
    <style>
      .cls-1 {
        fill: #f9fafa;
      }

      .cls-1, .cls-2, .cls-3 {
        stroke-width: 0px;
      }

      .cls-2 {
        fill: #121313;
      }

      .cls-3 {
        fill: #fdfdfd;
      }
    </style>
  </defs>
  <path class="cls-3" d="m63.32,176.26c0-35.84.1-71.68-.12-107.52-.03-4.52,1.02-5.55,5.54-5.54,72.28.16,144.57.16,216.85,0,4.52-.01,5.55,1.02,5.54,5.54-.16,72.28-.16,144.57,0,216.85.01,4.52-1.02,5.55-5.54,5.54-72.28-.16-144.57-.16-216.85,0-4.52.01-5.57-1.02-5.54-5.54.21-36.44.12-72.89.12-109.33Zm218.21,14.7c0-23.77-.18-47.54.12-71.3.08-6.42-2.07-10.76-7.3-14.35-13.87-9.53-27.53-19.37-41.28-29.09-6.4-4.53-13.48-6.15-21.3-5.55-39.56,3.05-79.13,6.02-118.7,8.91-15.35,1.12-18.91,4.72-18.91,19.96-.01,40.62.11,81.23-.1,121.85-.04,8.56,2.38,15.87,7.54,22.53,8.84,11.4,17.82,22.71,26.31,34.38,5.18,7.12,11.76,9.58,20.24,9.03,45.3-2.97,90.61-5.83,135.92-8.67,14.09-.88,17.4-4.14,17.44-18.2.08-23.17.02-46.33.02-69.5Z"/>
  <path class="cls-2" d="m281.53,190.96c0,23.17.06,46.33-.02,69.5-.05,14.05-3.36,17.31-17.44,18.2-45.31,2.84-90.62,5.69-135.92,8.67-8.48.56-15.06-1.91-20.24-9.03-8.49-11.66-17.47-22.97-26.31-34.38-5.16-6.65-7.58-13.97-7.54-22.53.21-40.61.08-81.23.1-121.85,0-15.24,3.57-18.84,18.91-19.96,39.57-2.9,79.14-5.87,118.7-8.91,7.82-.6,14.9,1.03,21.3,5.55,13.75,9.72,27.41,19.56,41.28,29.09,5.23,3.59,7.38,7.94,7.3,14.35-.29,23.76-.12,47.53-.12,71.3Zm-13.88.15c0-20.47-.09-40.94.05-61.42.05-7.02-2.17-10.57-10.03-10.07-42.64,2.71-85.29,5.1-127.94,7.62-11.9.7-12.77,1.58-12.78,13.34-.03,38.84-.02,77.67,0,116.51,0,12.95,1.87,14.71,14.72,13.95,41.46-2.43,82.91-5.05,124.39-7.2,8.52-.44,11.75-3.96,11.65-12.22-.23-20.17-.07-40.34-.07-60.51Zm-14.81-85.48c-5.23-6.35-11.34-9.14-16.15-13.44-8.88-7.93-18.93-10.36-30.77-9.3-28.13,2.52-56.34,4.22-84.52,6.24-7.79.56-15.6.95-23.38,1.71-2.66.26-7.96,1.46-3.91,4.83,10.28,8.55,18.96,19.61,35.51,17.95,28.38-2.85,56.96-3.68,85.45-5.42,12.16-.74,24.32-1.65,37.76-2.57Z"/>
  <path class="cls-1" d="m267.65,191.11c0,20.17-.16,40.34.07,60.51.09,8.26-3.14,11.78-11.65,12.22-41.48,2.15-82.93,4.77-124.39,7.2-12.85.75-14.71-1.01-14.72-13.95-.02-38.84-.03-77.67,0-116.51,0-11.76.88-12.63,12.78-13.34,42.65-2.52,85.3-4.91,127.94-7.62,7.86-.5,10.08,3.05,10.03,10.07-.14,20.47-.05,40.94-.05,61.42Zm-45.65,19.62c-4.27-1.08-4.86-4.42-6.39-6.73-11.12-16.78-22.06-33.68-33.1-50.5-1.3-1.98-2.9-5.38-4.36-5.38-11.62,0-23.43-1.14-34.69,2.87-1.98.7-2.89,3.04-2.81,5.3.09,2.46,2.01,2.98,3.82,2.69,7.24-1.13,6.68,3.59,6.67,8.31-.08,21.97-.13,43.93.03,65.9.04,5.64.6,10.92-7.18,11.75-2.06.22-3.86,2.1-3.24,4.61.62,2.51,2.89,1.51,4.5,1.42,8.71-.44,17.42-.9,26.12-1.55,3.87-.29,6.86-2.04,7.76-6.83-2.89-.74-5.71-1.65-8.6-2.14-2.85-.48-4.16-1.79-4.15-4.77.06-19.04.03-38.07.03-57.11,13.96,18.8,26.06,38.04,38.31,57.17,2.41,3.77,5.06,7.53,8.23,10.65,5.36,5.29,11.54,3.04,17.72,1.23,6.12-1.79,5.15-6.43,5.15-10.86,0-24.68-.03-49.35.01-74.03,0-5.45-1.75-11.96,7.31-12.28,2.46-.09,3.24-2.51,3.06-4.77-.09-1.16-.83-2.28-2.35-2.17-9.57.72-19.16,1.29-28.7,2.32-2.44.26-4.25,2.67-4,5.33.28,2.97,3.1,2.26,5.02,2.46,3.1.33,5.94.31,5.9,4.84-.15,17.3-.06,34.59-.06,52.26Z"/>
  <path class="cls-1" d="m252.84,105.63c-13.44.92-25.59,1.82-37.76,2.57-28.49,1.74-57.07,2.57-85.45,5.42-16.55,1.66-25.23-9.41-35.51-17.95-4.06-3.37,1.24-4.57,3.91-4.83,7.77-.75,15.58-1.15,23.38-1.71,28.18-2.02,56.38-3.72,84.52-6.24,11.84-1.06,21.89,1.37,30.77,9.3,4.81,4.3,10.92,7.09,16.15,13.44Z"/>
  <path class="cls-2" d="m221.99,210.73c0-17.66-.09-34.96.06-52.26.04-4.53-2.81-4.5-5.9-4.84-1.92-.21-4.74.5-5.02-2.46-.25-2.66,1.56-5.07,4-5.33,9.54-1.03,19.13-1.6,28.7-2.32,1.51-.11,2.25,1.01,2.35,2.17.18,2.26-.59,4.68-3.06,4.77-9.06.32-7.3,6.83-7.31,12.28-.04,24.68-.02,49.35-.01,74.03,0,4.43.97,9.07-5.15,10.86-6.18,1.81-12.37,4.05-17.72-1.23-3.17-3.13-5.82-6.88-8.23-10.65-12.25-19.14-24.35-38.37-38.31-57.17,0,19.04.03,38.07-.03,57.11,0,2.97,1.3,4.28,4.15,4.77,2.89.49,5.71,1.4,8.6,2.14-.9,4.79-3.89,6.55-7.76,6.83-8.7.65-17.41,1.11-26.12,1.55-1.61.08-3.88,1.09-4.5-1.42-.62-2.51,1.18-4.39,3.24-4.61,7.78-.83,7.23-6.11,7.18-11.75-.16-21.97-.11-43.93-.03-65.9.02-4.72.58-9.45-6.67-8.31-1.81.28-3.73-.23-3.82-2.69-.08-2.27.83-4.6,2.81-5.3,11.26-4.01,23.07-2.88,34.69-2.87,1.46,0,3.06,3.4,4.36,5.38,11.04,16.83,21.98,33.73,33.1,50.5,1.53,2.31,2.12,5.65,6.39,6.73Z"/>
</svg>