<?xml version="1.0" encoding="UTF-8"?>
<svg id="_레이어_1" data-name="레이어 1" xmlns="http://www.w3.org/2000/svg" xmlns:xlink="http://www.w3.org/1999/xlink" viewBox="0 0 354.33 354.33">
  <defs>
    <style>
      .cls-1 {
        fill: #fefefe;
      }

      .cls-1, .cls-2, .cls-3, .cls-4 {
        stroke-width: 0px;
      }

      .cls-2 {
        fill: #161311;
      }

      .cls-3 {
        fill: none;
      }

      .cls-5 {
        clip-path: url(#clippath);
      }

      .cls-4 {
        fill: #060202;
      }
    </style>
    <clipPath id="clippath">
      <rect class="cls-3" x="64.85" y="64.85" width="224.63" height="224.63"/>
    </clipPath>
  </defs>
  <g class="cls-5">
    <g>
      <path class="cls-1" d="m289.44,177.39c0,36.76-.01,73.51.04,110.27,0,1.46-.24,1.81-1.77,1.81-73.67-.05-147.33-.05-221,0-1.68,0-1.86-.47-1.86-1.95.04-73.59.04-147.17,0-220.76,0-1.53.25-1.92,1.88-1.92,73.59.05,147.19.05,220.78,0,1.72,0,1.97.48,1.97,2.05-.05,36.83-.04,73.66-.04,110.49Zm-67.12,4.28c-.43-.3-.24-.7-.24-1.02-.01-22.39,0-44.78-.04-67.17,0-1.43.37-1.81,1.8-1.81,10.14.06,20.28.04,30.42.03,3.15,0,4.36-1.18,4.38-4.35.03-3.87.07-7.73,0-11.6-.23-12.58-9.44-22.13-21.38-22.13-47.63-.02-95.26-.01-142.89,0-1.45,0-2.94-.03-4.36.24-11.12,2.12-18.11,10.64-18.12,22.04,0,50.91,0,101.82-.03,152.72,0,1.73.49,3.02,1.73,4.24,8.91,8.83,17.78,17.7,26.61,26.61,1.17,1.18,2.39,1.66,4.05,1.66,35.38-.03,70.75-.11,106.13.08,6.71.04,11.92-4.78,11.78-11.82-.29-14.22-.06-28.44-.12-42.66,0-1.6.48-2.69,1.6-3.81,17.83-17.76,35.61-35.56,53.4-53.36.82-.82,1.66-1.65,2.41-2.54,4.87-5.79,4.54-14.48-.74-19.9-6.12-6.27-15.41-6.13-21.97.4-10.9,10.86-21.77,21.76-32.66,32.63-.54.54-.95,1.27-1.75,1.49Z"/>
      <path class="cls-4" d="m222.33,181.68c.8-.23,1.21-.96,1.75-1.49,10.89-10.87,21.76-21.77,32.66-32.63,6.56-6.53,15.85-6.67,21.97-.4,5.28,5.42,5.61,14.1.74,19.9-.75.89-1.58,1.71-2.41,2.54-17.79,17.8-35.58,35.6-53.4,53.36-1.12,1.11-1.61,2.2-1.6,3.81.07,14.22-.16,28.45.12,42.66.14,7.04-5.07,11.85-11.78,11.82-35.37-.2-70.75-.11-106.13-.08-1.66,0-2.87-.47-4.05-1.66-8.83-8.91-17.7-17.78-26.61-26.61-1.24-1.23-1.73-2.51-1.73-4.24.03-50.91.02-101.82.03-152.72,0-11.4,6.99-19.92,18.12-22.04,1.42-.27,2.9-.24,4.36-.24,47.63-.01,95.26-.02,142.89,0,11.94,0,21.15,9.55,21.38,22.13.07,3.86.04,7.73,0,11.6-.03,3.16-1.24,4.35-4.38,4.35-10.14,0-20.28.03-30.42-.03-1.43,0-1.8.38-1.8,1.81.05,22.39.03,44.78.04,67.17,0,.32-.19.72.24,1.02Zm-1.05-101.46h-1.13c-42.08,0-84.17-.02-126.25.02-8.92,0-15.37,6.52-15.37,15.53-.03,49.59,0,99.18-.05,148.77,0,1.54.41,1.96,1.94,1.93,5.98-.09,11.96-.04,17.94-.04,6.15,0,8.32,2.15,8.32,8.23,0,5.91.05,11.82-.03,17.72-.02,1.58.22,2.22,2.07,2.22,33.91-.07,67.83-.05,101.74-.06,3.6,0,4.99-1.43,4.99-5.06,0-12.03,0-24.07-.01-36.1,0-.59.29-1.28-.36-1.91-5.27,5.29-10.63,10.44-15.71,15.86-2.85,3.04-5.9,5.07-10.15,5.65-5.16.71-10.24,2.08-15.36,3.09-3.23.64-5.07-1.23-4.43-4.45,1.1-5.55,2.28-11.09,3.36-16.65.5-2.59,1.22-4.87,3.27-6.88,12.68-12.48,25.2-25.12,37.82-37.67,1.11-1.1,1.61-2.17,1.61-3.78-.05-30.34,0-60.68-.08-91.01-.02-5.81,1.91-10.72,5.85-15.41Zm45.98,69.08c-1.88-.07-3.86,1.03-5.57,2.74-23.67,23.67-47.34,47.34-71.03,70.99-.85.85-.97,1.31-.05,2.2,3.2,3.08,6.36,6.22,9.44,9.43,1,1.04,1.53,1.01,2.54-.01,5.2-5.31,10.49-10.54,15.75-15.8,18.1-18.1,36.2-36.2,54.3-54.31.67-.67,1.35-1.34,1.9-2.1,1.97-2.71,2.27-5.68.75-8.63-1.51-2.94-4.02-4.51-8.04-4.52Zm-30.25-44.28c4.3,0,8.6-.06,12.89.03,1.46.03,2.07-.27,1.98-1.88-.14-2.76-.01-5.53-.05-8.3-.11-7.52-5.49-13.57-13.31-14.5-6.04-.72-13.33,2.8-15.64,10.47-1.22,4.06-.56,8.23-.79,12.35-.08,1.42.33,1.89,1.8,1.86,4.37-.09,8.74-.03,13.11-.03Zm-59.17,143.36c1.71-.33,3.43-.61,5.13-1,4.67-1.06,9.75-1.19,12.79-5.88.46-.71.75-1,.03-1.7-3.39-3.31-6.71-6.69-10.07-10.03-.31-.31-.67-1.08-1.2-.49-1.65,1.81-4.15,3.04-4.8,5.53-1.07,4.14-1.77,8.38-2.63,12.57-.14.66-.22,1.21.76,1.01Zm-93.72,4.6c5.24,5.37,10.49,10.76,15.82,16.23,0-5.04,0-10.05,0-15.06,0-.72,0-1.21-1.02-1.2-5.08.05-10.16.02-14.81.02Z"/>
      <path class="cls-1" d="m221.28,80.22c-3.93,4.69-5.86,9.6-5.85,15.41.08,30.34.02,60.68.08,91.01,0,1.61-.5,2.68-1.61,3.78-12.62,12.55-25.14,25.19-37.82,37.67-2.05,2.01-2.77,4.29-3.27,6.88-1.08,5.56-2.26,11.1-3.36,16.65-.64,3.22,1.19,5.09,4.43,4.45,5.13-1.01,10.2-2.38,15.36-3.09,4.25-.59,7.3-2.62,10.15-5.65,5.08-5.41,10.44-10.56,15.71-15.86.65.63.36,1.32.36,1.91.02,12.03.02,24.07.01,36.1,0,3.63-1.4,5.05-4.99,5.06-33.91,0-67.83,0-101.74.06-1.86,0-2.09-.64-2.07-2.22.08-5.91.03-11.81.03-17.72,0-6.08-2.17-8.23-8.32-8.23-5.98,0-11.96-.05-17.94.04-1.53.02-1.94-.39-1.94-1.93.04-49.59.02-99.18.05-148.77,0-9.02,6.45-15.52,15.37-15.53,42.08-.04,84.17-.02,126.25-.02h1.13Zm-109.55,116.14c5.91,0,11.82,0,17.72,0,3.56,0,4.59-1.02,4.59-4.48,0-11.96,0-23.92,0-35.88,0-3.38-1.04-4.43-4.42-4.43-11.96,0-23.92,0-35.88,0-3.41,0-4.49,1.02-4.49,4.36-.02,12.03-.02,24.07,0,36.1,0,3.28,1.05,4.31,4.32,4.32,6.05.02,12.11,0,18.16,0Zm34.35-102.05c-16.92,0-33.83,0-50.75,0-.94,0-1.88-.08-2.8.31-1.36.58-2.11,1.65-2.13,3.03-.02,1.48.75,2.61,2.21,3.18.77.3,1.56.33,2.36.33,34.12,0,68.24,0,102.37-.01.72,0,1.46-.07,2.15-.26,1.6-.44,2.41-1.54,2.4-3.21-.01-1.68-.9-2.74-2.48-3.16-.76-.2-1.58-.2-2.38-.2-16.99-.01-33.98,0-50.96,0Zm0,45.5c16.92,0,33.85,0,50.77,0,.73,0,1.46.02,2.19-.05,1.58-.16,2.53-1.13,2.81-2.61.31-1.6-.34-2.83-1.8-3.63-.9-.49-1.85-.32-2.78-.32-34.07,0-68.13,0-102.2,0-.51,0-1.02-.03-1.53.02-1.45.12-2.41.88-2.9,2.26-.88,2.48.81,4.34,4.02,4.34,17.14.01,34.29,0,51.43,0Zm.23-19.34c16.92,0,33.85,0,50.77,0,.66,0,1.34.09,1.96-.05,1.75-.38,2.87-1.42,2.84-3.32-.03-1.86-1.04-2.97-2.88-3.23-.79-.11-1.6-.09-2.4-.09-33.63,0-67.26,0-100.89,0-.8,0-1.6.03-2.4.09-1.61.14-2.47,1.18-2.83,2.62-.56,2.24,1.27,3.97,4.17,3.97,17.22,0,34.43,0,51.65,0Zm-22.19,90.22c-9.55,0-19.11,0-28.66,0-3.34,0-5.11,1.2-5.09,3.44.02,2.23,1.77,3.37,5.16,3.37,19.11,0,38.22,0,57.33-.01.87,0,1.76-.05,2.59-.27,1.41-.37,2.16-1.37,2.28-2.85.12-1.47-.48-2.54-1.74-3.25-.86-.48-1.82-.44-2.77-.44-9.7,0-19.4,0-29.1,0Zm-.15,26.19c9.91,0,19.83-.01,29.74.01,1.58,0,2.91-.4,3.67-1.85.57-1.09.53-2.25-.13-3.33-1-1.64-2.65-1.58-4.26-1.58-19.25,0-38.49,0-57.74,0-.73,0-1.46.05-2.17.15-1.19.16-1.94.9-2.39,1.98-1.01,2.43.71,4.59,3.75,4.6,9.84.02,19.68,0,29.53,0Zm48.37-84.39c-3.79,0-7.58,0-11.37,0-4.81,0-9.62-.04-14.43.02-2.28.03-3.75,1.48-3.72,3.44.03,1.84,1.45,3.18,3.6,3.37.29.03.58.01.87.01,16.76,0,33.52,0,50.28-.01.72,0,1.46-.09,2.14-.31,1.37-.46,2.13-1.45,2.18-2.93.06-1.56-.64-2.61-2.06-3.25-.84-.38-1.7-.33-2.57-.33-8.31,0-16.61,0-24.92,0Zm-.21,26.19c7.73,0,15.46,0,23.2,0,1.17,0,2.34.07,3.5-.04,1.85-.17,3.06-1.56,3.07-3.35,0-1.81-1.17-3.07-3.1-3.27-.58-.06-1.17-.04-1.75-.04-16.41,0-32.83,0-49.24,0-.73,0-1.47-.02-2.18.1-2.58.43-3.67,3.36-2,5.35.87,1.04,2.04,1.26,3.34,1.26,8.39-.02,16.78-.01,25.17-.01Zm.18,19.31c8.68,0,17.36.01,26.04-.01,2.21,0,3.54-1.28,3.55-3.26,0-1.96-1.34-3.31-3.51-3.32-17.36-.02-34.72,0-52.07-.02-1.19,0-2.15.42-2.82,1.37-.71,1-.93,2.1-.34,3.29.69,1.41,1.79,1.96,3.34,1.96,8.61-.03,17.21-.01,25.82-.01Zm-30.25,51.62c-4.08,0-8.17,0-12.25,0-2.37,0-3.83,1.22-3.89,3.19-.06,1.96,1.42,3.38,3.71,3.38,8.17.03,16.34.03,24.5,0,2.32,0,3.66-1.34,3.6-3.42-.06-1.96-1.39-3.14-3.64-3.15-4.01-.02-8.02,0-12.03,0Z"/>
      <path class="cls-1" d="m267.26,149.29c4.01,0,6.53,1.58,8.04,4.52,1.52,2.95,1.22,5.92-.75,8.63-.55.76-1.24,1.43-1.9,2.1-18.1,18.11-36.2,36.21-54.3,54.31-5.26,5.26-10.55,10.48-15.75,15.8-1,1.02-1.54,1.05-2.54.01-3.08-3.21-6.24-6.35-9.44-9.43-.92-.89-.81-1.35.05-2.2,23.69-23.65,47.36-47.32,71.03-70.99,1.71-1.71,3.69-2.81,5.57-2.74Z"/>
      <path class="cls-1" d="m237.01,105.01c-4.37,0-8.74-.06-13.11.03-1.47.03-1.88-.44-1.8-1.86.22-4.12-.43-8.29.79-12.35,2.31-7.67,9.6-11.19,15.64-10.47,7.82.93,13.2,6.98,13.31,14.5.04,2.77-.09,5.54.05,8.3.08,1.61-.52,1.91-1.98,1.88-4.3-.09-8.6-.03-12.89-.03Z"/>
      <path class="cls-1" d="m177.84,248.37c-.98.2-.89-.35-.76-1.01.87-4.19,1.56-8.43,2.63-12.57.65-2.49,3.15-3.72,4.8-5.53.53-.58.89.18,1.2.49,3.36,3.34,6.69,6.72,10.07,10.03.72.7.43.99-.03,1.7-3.04,4.69-8.12,4.82-12.79,5.88-1.7.39-3.42.67-5.13,1Z"/>
      <path class="cls-1" d="m84.12,252.98c4.65,0,9.73.03,14.81-.02,1.01-.01,1.02.48,1.02,1.2-.01,5.01,0,10.02,0,15.06-5.33-5.47-10.58-10.86-15.82-16.23Z"/>
      <path class="cls-4" d="m111.73,196.35c-6.05,0-12.11.01-18.16,0-3.27-.01-4.32-1.04-4.32-4.32-.02-12.03-.02-24.07,0-36.1,0-3.34,1.09-4.36,4.49-4.36,11.96,0,23.92,0,35.88,0,3.38,0,4.42,1.04,4.42,4.43,0,11.96,0,23.92,0,35.88,0,3.46-1.03,4.47-4.59,4.48-5.91,0-11.82,0-17.72,0Zm-15.78-22.47c0,4.66.05,9.33-.03,13.99-.02,1.37.27,1.84,1.76,1.82,9.33-.07,18.65-.07,27.98,0,1.46.01,1.8-.41,1.79-1.82-.06-9.25-.07-18.51,0-27.76.01-1.49-.33-1.98-1.91-1.96-9.25.08-18.51.08-27.76,0-1.61-.01-1.9.51-1.87,1.97.09,4.59.03,9.18.03,13.77Z"/>
      <path class="cls-2" d="m146.08,94.3c16.99,0,33.98,0,50.96,0,.79,0,1.62,0,2.38.2,1.58.41,2.47,1.47,2.48,3.16.01,1.67-.8,2.77-2.4,3.21-.69.19-1.43.26-2.15.26-34.12.01-68.24.01-102.37.01-.81,0-1.59-.03-2.36-.33-1.47-.57-2.24-1.7-2.21-3.18.02-1.38.77-2.45,2.13-3.03.91-.39,1.85-.31,2.8-.31,16.92,0,33.83,0,50.75,0Z"/>
      <path class="cls-4" d="m146.08,139.8c-17.14,0-34.29,0-51.43,0-3.21,0-4.89-1.86-4.02-4.34.49-1.38,1.45-2.14,2.9-2.26.51-.04,1.02-.02,1.53-.02,34.07,0,68.13,0,102.2,0,.93,0,1.89-.17,2.78.32,1.46.8,2.11,2.03,1.8,3.63-.29,1.48-1.23,2.45-2.81,2.61-.72.07-1.46.05-2.19.05-16.92,0-33.85,0-50.77,0Z"/>
      <path class="cls-4" d="m146.31,120.46c-17.22,0-34.43,0-51.65,0-2.9,0-4.73-1.73-4.17-3.97.36-1.45,1.22-2.48,2.83-2.62.8-.07,1.6-.09,2.4-.09,33.63,0,67.26,0,100.89,0,.8,0,1.61-.02,2.4.09,1.84.26,2.85,1.37,2.88,3.23.03,1.9-1.08,2.94-2.84,3.32-.63.14-1.31.05-1.96.05-16.92,0-33.85,0-50.77,0Z"/>
      <path class="cls-2" d="m124.12,210.68c9.7,0,19.4,0,29.1,0,.95,0,1.91-.04,2.77.44,1.26.71,1.86,1.78,1.74,3.25-.12,1.47-.87,2.48-2.28,2.85-.83.22-1.73.27-2.59.27-19.11.01-38.22.01-57.33.01-3.39,0-5.14-1.15-5.16-3.37-.02-2.24,1.74-3.44,5.09-3.44,9.55,0,19.11,0,28.66,0Z"/>
      <path class="cls-4" d="m123.97,236.88c-9.84,0-19.68.02-29.53,0-3.04,0-4.76-2.17-3.75-4.6.45-1.08,1.19-1.82,2.39-1.98.72-.1,1.45-.15,2.17-.15,19.25,0,38.49,0,57.74,0,1.62,0,3.26-.06,4.26,1.58.66,1.08.7,2.24.13,3.33-.76,1.45-2.09,1.86-3.67,1.85-9.91-.02-19.83-.01-29.74-.01Z"/>
      <path class="cls-2" d="m172.34,152.49c8.31,0,16.61,0,24.92,0,.87,0,1.73-.05,2.57.33,1.43.64,2.12,1.7,2.06,3.25-.06,1.48-.81,2.48-2.18,2.93-.67.22-1.42.31-2.14.31-16.76.02-33.52.01-50.28.01-.29,0-.58.02-.87-.01-2.15-.19-3.57-1.53-3.6-3.37-.03-1.96,1.44-3.41,3.72-3.44,4.81-.06,9.62-.02,14.43-.02,3.79,0,7.58,0,11.37,0Z"/>
      <path class="cls-4" d="m172.13,178.68c-8.39,0-16.78-.01-25.17.01-1.3,0-2.47-.22-3.34-1.26-1.67-1.99-.58-4.92,2-5.35.71-.12,1.45-.1,2.18-.1,16.41,0,32.83,0,49.24,0,.58,0,1.17-.02,1.75.04,1.93.2,3.1,1.46,3.1,3.27,0,1.78-1.21,3.17-3.07,3.35-1.16.11-2.33.04-3.5.04-7.73,0-15.46,0-23.2,0Z"/>
      <path class="cls-4" d="m172.31,197.98c-8.61,0-17.21-.01-25.82.01-1.55,0-2.65-.55-3.34-1.96-.58-1.19-.37-2.28.34-3.29.67-.94,1.63-1.37,2.82-1.37,17.36.01,34.72,0,52.07.02,2.16,0,3.51,1.35,3.51,3.32,0,1.97-1.33,3.25-3.55,3.26-8.68.03-17.36.01-26.04,0Z"/>
      <path class="cls-4" d="m142.06,249.6c4.01,0,8.02-.01,12.03,0,2.25.01,3.58,1.19,3.64,3.15.06,2.08-1.27,3.41-3.6,3.42-8.17.03-16.34.03-24.5,0-2.29,0-3.77-1.42-3.71-3.38.06-1.97,1.52-3.19,3.89-3.19,4.08-.01,8.17,0,12.25,0Z"/>
      <path class="cls-1" d="m95.94,173.88c0-4.59.06-9.18-.03-13.77-.03-1.46.26-1.99,1.87-1.97,9.25.08,18.51.08,27.76,0,1.58-.01,1.92.47,1.91,1.96-.07,9.25-.06,18.51,0,27.76,0,1.41-.34,1.83-1.79,1.82-9.33-.07-18.65-.07-27.98,0-1.48.01-1.78-.45-1.76-1.82.08-4.66.03-9.33.03-13.99Z"/>
    </g>
  </g>
</svg>